<?xml version="1.0" standalone="no"?>
<!DOCTYPE svg PUBLIC "-//W3C//DTD SVG 20010904//EN"
 "http://www.w3.org/TR/2001/REC-SVG-20010904/DTD/svg10.dtd">
<svg version="1.0" xmlns="http://www.w3.org/2000/svg"
 width="1329.000000pt" height="559.000000pt" viewBox="0 0 1329.000000 559.000000"
 preserveAspectRatio="xMidYMid meet">

<g transform="translate(0.000000,559.000000) scale(0.100000,-0.100000)"
fill="#000000" stroke="none">
<path d="M4304 3123 l-16 -38 -15 23 c-15 22 -20 13 -134 -235 -66 -142 -119
-259 -119 -260 0 -2 11 -3 25 -3 14 0 25 -4 25 -10 0 -5 -6 -10 -14 -10 -7 0
-19 -6 -26 -14 -6 -8 -23 -16 -38 -18 -23 -3 -34 -20 -93 -148 -38 -80 -68
-148 -68 -152 -1 -5 10 -8 23 -8 13 0 26 -7 30 -15 4 -12 27 -15 120 -15 113
0 115 0 134 28 20 26 24 27 131 30 93 3 112 1 117 -12 4 -11 14 -13 34 -10 22
5 29 2 35 -15 9 -29 24 -27 116 14 91 40 99 41 99 19 0 -12 6 -15 25 -10 18 5
25 2 25 -8 0 -7 6 -19 14 -25 11 -9 35 -2 112 30 55 24 102 47 106 53 4 6 8
46 8 89 l0 78 32 -3 c29 -3 39 -14 103 -115 56 -90 75 -113 93 -113 13 0 30
-7 39 -15 12 -13 38 -15 136 -13 69 2 122 7 124 13 6 19 -52 34 -137 36 -47 1
-90 4 -97 6 -6 3 -44 57 -84 121 -39 65 -79 123 -87 130 -19 15 -126 16 -153
2 -16 -9 -19 -22 -19 -96 l0 -85 -66 -30 c-37 -17 -70 -27 -75 -22 -5 5 -10
168 -12 363 l-2 355 -3 -362 c-1 -251 1 -362 9 -365 6 -2 1 -12 -10 -22 l-21
-19 0 391 c0 359 4 426 25 392 7 -11 78 -14 89 -3 3 4 15 8 26 10 18 3 19 -6
22 -133 2 -112 0 -137 -12 -145 -9 -5 -10 -9 -3 -9 6 0 15 5 18 10 3 6 17 10
30 10 22 0 24 -4 27 -62 2 -42 -1 -66 -10 -73 -8 -7 30 -10 122 -10 103 0 132
3 129 13 -3 7 4 12 19 12 16 0 30 -10 42 -30 9 -17 21 -28 26 -25 5 3 12 0 16
-6 4 -8 3 -9 -4 -5 -7 4 -12 5 -12 2 0 -7 190 -309 202 -321 19 -18 -20 49
-101 175 l-80 125 30 6 c17 4 42 17 56 30 32 29 83 98 83 112 0 5 -12 -8 -26
-29 -28 -42 -72 -83 -90 -84 -6 0 9 20 32 45 60 62 90 170 64 230 -6 15 -9 7
-9 -30 -1 -70 -17 -118 -54 -167 -45 -59 -65 -60 -99 -3 -26 43 -30 45 -75 46
-43 1 -45 2 -18 9 17 4 27 8 23 9 -4 0 4 12 17 26 31 30 32 73 4 109 -23 29
-15 35 13 9 10 -9 18 -12 18 -6 0 5 -9 18 -21 29 -18 16 -40 20 -140 22 -132
4 -149 -2 -149 -48 0 -24 -33 -60 -55 -60 -3 0 -5 57 -5 128 l0 127 152 -3
c96 -2 169 -8 196 -17 50 -16 56 -11 10 9 l-33 14 33 1 c40 1 117 -37 154 -76
41 -43 67 -110 69 -178 2 -59 2 -59 8 -15 4 28 9 40 14 33 6 -9 38 -13 103
-13 l94 0 0 -285 0 -285 25 0 c13 0 28 -7 33 -15 7 -13 27 -15 117 -13 76 2
110 7 113 16 2 6 -3 12 -12 12 -14 0 -16 27 -18 218 l-2 217 -6 -205 -5 -205
-75 -6 c-41 -3 -83 -9 -92 -13 -17 -8 -18 10 -18 293 0 280 1 301 18 301 15 1
15 2 -2 15 -29 22 -213 21 -244 -1 l-22 -15 0 89 0 90 44 -5 c25 -3 74 -2 110
2 61 6 66 8 66 31 0 15 6 24 15 24 8 0 15 -4 15 -8 0 -4 106 -8 235 -7 129 0
235 3 235 8 0 4 14 7 31 7 26 0 30 -3 24 -17 -15 -39 -16 -47 -1 -23 15 24 15
22 16 -42 0 -65 1 -68 24 -68 34 0 41 -16 11 -24 -14 -4 -25 -11 -25 -16 0 -6
-13 -10 -30 -10 l-30 0 0 -279 0 -278 78 -36 c42 -19 104 -45 137 -56 87 -31
86 -33 83 226 -3 196 -2 213 14 213 10 0 22 9 28 19 11 21 14 368 4 395 -9 23
-215 24 -234 1 -18 -21 -53 -19 -68 5 -12 19 -23 20 -281 20 -226 0 -270 -2
-281 -15 -7 -8 -23 -15 -36 -15 -13 0 -24 -4 -24 -10 0 -6 -33 -10 -79 -10
-58 0 -82 -4 -91 -15 -7 -8 -23 -15 -36 -15 -18 0 -24 -6 -24 -21 0 -18 -4
-17 -41 15 -79 67 -94 71 -307 74 -162 3 -193 1 -198 -12 -4 -9 -27 -16 -67
-21 -34 -3 -83 -16 -109 -28 l-47 -22 -1 -235 c0 -134 -4 -241 -10 -250 -8
-12 -10 -12 -10 -1 0 8 -3 12 -6 9 -3 -4 2 -20 11 -37 14 -27 14 -31 0 -31 -8
0 -15 5 -15 10 0 13 -332 9 -368 -4 -21 -8 -22 -7 -12 16 11 22 15 24 76 20
42 -3 64 -1 64 7 0 6 -12 36 -26 68 l-25 58 -19 -25 c-28 -37 -34 -18 -10 31
17 32 24 39 31 28 7 -11 9 -11 9 4 0 32 -37 19 -57 -20 l-18 -38 -80 -6 c-44
-3 -88 -9 -97 -13 -10 -5 -18 -4 -18 0 0 5 52 122 115 260 74 159 121 251 131
251 7 0 14 -5 14 -11 0 -6 4 -5 9 3 7 11 14 5 30 -25 27 -52 27 -36 -1 21 -29
59 -60 62 -84 8z m2277 -43 c5 0 9 -79 9 -185 0 -158 -2 -185 -15 -185 -13 0
-15 27 -17 178 l-2 177 -3 -160 c-3 -130 -7 -162 -20 -177 -9 -10 -20 -18 -25
-18 -4 0 -8 52 -8 115 0 74 4 115 11 115 5 0 7 5 4 10 -3 6 -30 10 -60 10 -30
0 -57 -4 -60 -10 -16 -26 -25 -4 -25 58 l0 67 85 -4 c62 -2 85 0 85 9 0 7 7
10 16 6 9 -3 20 -6 25 -6z m-1581 -215 c0 -25 -4 -45 -10 -45 -5 0 -10 20 -10
45 0 25 5 45 10 45 6 0 10 -20 10 -45z m1345 15 c3 -5 26 -10 51 -10 24 0 44
5 44 10 0 6 11 10 25 10 l25 0 0 -115 0 -115 25 0 25 0 0 -206 c0 -134 -3
-203 -10 -199 -6 4 -10 80 -10 196 0 124 -3 188 -10 184 -6 -4 -10 -73 -10
-176 0 -103 -4 -169 -10 -169 -5 0 -35 11 -66 25 -65 29 -101 34 -70 10 23
-17 14 -20 -15 -5 -18 10 -19 24 -19 290 0 258 4 304 25 270z m-1156 -32 c4
-12 5 -34 1 -48 -6 -25 -8 -25 -118 -28 -110 -3 -134 4 -89 23 15 7 23 20 25
43 l3 32 85 0 c78 0 85 -2 93 -22z m-195 -117 c17 -7 16 -9 -8 -24 -26 -17
-26 -17 -26 8 0 26 4 28 34 16z m312 -103 c24 -46 -2 -31 -30 16 -14 25 -26
48 -26 53 1 11 37 -35 56 -69z m-991 -58 c-3 -5 -13 -10 -21 -10 -8 0 -12 5
-9 10 3 6 13 10 21 10 8 0 12 -4 9 -10z m-264 -27 c0 -10 2 -13 5 -8 2 6 35 9
79 7 49 -2 75 0 75 7 0 6 14 11 31 11 21 0 29 -4 26 -12 -3 -7 -16 -38 -29
-68 -13 -30 -29 -59 -36 -65 -8 -7 51 -9 183 -7 122 2 193 6 190 12 -4 6 5 10
19 10 17 0 31 -9 41 -27 9 -16 13 -19 10 -8 -18 52 -18 55 5 55 20 0 22 -3 15
-37 -9 -43 -10 -62 -4 -82 3 -9 -23 -25 -75 -47 -43 -19 -81 -33 -83 -31 -2 2
28 18 67 35 38 17 70 36 70 42 0 7 -4 10 -8 8 -115 -47 -152 -65 -152 -75 0
-22 -16 -14 -28 12 -16 34 -15 40 3 25 18 -15 20 1 3 18 -8 8 -60 12 -170 12
l-157 0 -23 -30 c-20 -28 -26 -30 -91 -30 -37 0 -77 -5 -88 -11 -11 -6 -24 -9
-28 -7 -10 4 129 308 141 308 4 0 8 -8 9 -17z m897 -125 l-3 -92 -78 -34 c-44
-18 -81 -32 -83 -29 -2 2 28 18 68 35 l73 30 3 91 c2 52 7 91 13 91 6 0 9 -35
7 -92z m207 -15 c38 -60 75 -118 83 -130 8 -13 10 -23 4 -23 -5 0 -43 53 -84
118 -95 149 -91 142 -80 142 5 0 40 -48 77 -107z m-1005 -106 c0 -18 -27 -53
-35 -46 -7 8 15 59 27 59 4 0 8 -6 8 -13z m2270 -2 c14 -8 21 -14 15 -14 -5 0
-21 6 -35 14 -14 8 -20 14 -15 14 6 0 21 -6 35 -14z m66 -31 c18 -14 18 -14
-6 -3 -31 14 -36 19 -24 19 6 0 19 -7 30 -16z"/>
<path d="M6393 3015 c0 -27 2 -38 4 -22 2 15 2 37 0 50 -2 12 -4 0 -4 -28z"/>
<path d="M6430 3010 c0 -29 1 -30 50 -30 49 0 50 1 50 30 0 29 -1 30 -50 30
-49 0 -50 -1 -50 -30z"/>
<path d="M6524 2825 c0 -49 1 -71 3 -48 2 23 2 64 0 90 -2 26 -3 8 -3 -42z"/>
<path d="M6457 2863 c-11 -11 -8 -183 3 -183 6 0 10 38 10 95 0 95 -1 101 -13
88z"/>
<path d="M6344 2610 c0 -140 2 -198 3 -127 2 70 2 184 0 255 -1 70 -3 12 -3
-128z"/>
<path d="M6411 2814 c0 -11 3 -14 6 -6 3 7 2 16 -1 19 -3 4 -6 -2 -5 -13z"/>
<path d="M6470 2639 c0 -5 5 -7 10 -4 6 3 10 8 10 11 0 2 -4 4 -10 4 -5 0 -10
-5 -10 -11z"/>
<path d="M4213 2528 c-16 -21 -36 -78 -30 -84 3 -3 17 17 31 45 24 46 23 70
-1 39z"/>
<path d="M8246 3138 c-9 -12 -16 -28 -16 -35 0 -21 -16 -15 -27 10 -10 20 -13
16 -42 -48 -17 -38 -71 -155 -120 -260 -81 -176 -86 -190 -67 -193 30 -5 45
-22 19 -22 -11 0 -26 -7 -33 -15 -7 -8 -22 -15 -35 -15 -18 0 -31 -19 -78
-117 l-56 -118 0 373 c-1 438 -4 452 -78 380 -24 -23 -36 -29 -41 -21 -5 8
-76 -56 -207 -188 -110 -110 -208 -205 -219 -211 -16 -9 -49 20 -251 222 -244
244 -267 260 -273 192 -4 -38 -8 -39 -40 -9 l-25 22 6 -127 c3 -71 3 -128 0
-128 -4 0 -17 10 -30 22 l-23 21 0 -311 0 -312 29 0 c16 0 31 -6 35 -15 4 -12
26 -15 110 -15 94 0 106 2 116 19 5 11 10 72 10 136 l0 117 37 -32 c31 -28 38
-30 43 -16 4 14 11 11 40 -19 21 -21 40 -33 50 -30 10 3 29 -9 50 -30 21 -22
40 -33 50 -30 10 3 26 -5 40 -20 13 -14 28 -25 33 -25 6 0 61 50 124 112 l113
112 0 -91 0 -92 58 -26 c31 -15 92 -40 135 -57 75 -29 79 -29 98 -13 18 17 20
17 37 2 15 -14 40 -17 131 -17 108 0 112 1 122 24 14 31 34 36 145 36 70 0 95
-4 104 -15 8 -9 21 -13 32 -9 14 4 24 -1 34 -15 21 -29 36 -27 137 22 l87 43
0 -28 c0 -23 4 -28 26 -28 14 0 32 -7 40 -15 13 -12 53 -15 233 -15 253 0 293
8 365 71 43 38 94 115 83 126 -3 2 -8 -5 -12 -17 -16 -51 -123 -140 -167 -140
-7 0 6 9 29 21 50 25 89 67 115 127 33 73 15 79 -22 7 -24 -47 -48 -77 -78
-99 l-44 -31 -228 -5 c-164 -4 -233 -9 -242 -17 -24 -25 -28 -12 -28 77 0 81
8 107 25 81 3 -5 90 -10 193 -10 159 0 194 3 232 18 24 10 46 24 48 30 2 7
-11 3 -30 -9 -42 -25 -54 -26 -28 0 11 11 20 33 20 50 0 17 -9 39 -20 50 -24
24 -13 26 19 3 18 -12 23 -13 19 -2 -2 8 -20 22 -39 31 -27 14 -60 18 -162 18
-144 0 -172 8 -236 65 -23 21 -41 33 -41 28 0 -13 71 -78 105 -96 17 -9 25
-16 19 -17 -23 0 -109 66 -137 106 -18 26 -31 60 -35 89 -4 43 -3 47 14 41 37
-11 94 -15 94 -6 0 6 11 10 25 10 18 0 25 5 25 20 0 11 5 20 11 20 5 0 7 5 4
10 -3 6 -30 10 -60 10 -30 0 -57 -4 -60 -10 -13 -20 -25 -9 -19 18 15 67 29
97 62 134 63 70 65 71 349 69 172 -2 253 1 253 8 0 6 16 11 35 11 36 0 47 13
19 24 -9 3 -122 6 -252 6 -236 0 -238 -1 -319 -29 -45 -16 -98 -42 -118 -57
-45 -34 -82 -96 -91 -151 -6 -42 -6 -43 21 -43 l28 0 -26 -20 c-14 -11 -35
-20 -47 -20 -21 0 -22 -3 -16 -41 15 -92 79 -162 188 -204 62 -24 92 -29 195
-33 109 -4 123 -6 128 -23 4 -10 3 -28 0 -39 -6 -19 -15 -20 -195 -20 -154 0
-191 -3 -204 -15 -8 -8 -26 -15 -40 -15 -24 0 -26 -4 -26 -39 0 -22 -3 -47 -6
-56 -7 -17 -153 -89 -162 -80 -4 4 49 30 116 56 13 5 20 13 17 19 -4 6 -20 4
-43 -6 -20 -9 -56 -23 -79 -32 -24 -9 -43 -22 -43 -29 0 -24 -15 -13 -27 18
-10 26 -10 30 3 25 10 -4 14 -1 12 6 -4 10 -49 14 -170 16 l-166 2 -22 -30
c-20 -28 -25 -30 -91 -30 -39 0 -79 -5 -91 -11 -11 -6 -22 -8 -25 -6 -5 6 123
287 137 301 7 7 10 6 10 -2 0 -8 26 -12 85 -12 50 0 85 4 85 10 0 6 11 10 25
10 14 0 25 -4 25 -10 0 -16 -54 -124 -68 -135 -8 -7 51 -9 180 -7 109 2 194 7
196 13 5 13 49 11 56 -3 3 -7 3 -3 0 9 -4 17 0 22 18 25 13 2 24 11 26 20 2
12 -1 16 -11 12 -8 -3 -18 -1 -22 5 -8 14 -341 15 -350 1 -7 -12 -35 -13 -35
-2 0 15 31 47 36 37 2 -6 29 -8 60 -7 37 3 54 8 51 15 -53 127 -60 136 -72 97
-3 -11 -13 -20 -21 -20 -11 0 -9 10 8 45 12 24 25 42 30 39 4 -3 8 0 8 6 0 24
-36 3 -55 -33 l-20 -37 -73 0 c-40 0 -81 -5 -92 -12 -10 -7 -22 -10 -24 -7 -3
3 47 120 111 260 109 237 119 254 142 254 15 0 31 -9 38 -20 18 -29 16 -9 -2
25 -19 36 -48 39 -69 8z m-1228 -301 l237 -237 240 240 c131 131 241 237 244
234 3 -3 -105 -115 -239 -249 -135 -135 -240 -245 -234 -245 6 0 19 9 29 20
10 11 23 17 29 13 6 -3 8 -2 3 2 -10 12 23 46 37 38 6 -3 8 -2 3 2 -8 10 92
117 103 110 4 -2 22 12 41 32 19 20 27 32 19 28 -8 -5 -4 4 9 18 13 14 28 25
34 24 6 -1 11 5 12 13 0 8 7 15 15 15 8 0 15 7 15 15 0 8 7 15 15 15 8 0 15 7
15 15 0 8 7 15 15 15 8 0 15 5 15 10 0 14 75 103 92 109 11 4 13 -70 13 -410
0 -274 -3 -413 -10 -409 -6 4 -10 147 -10 396 0 258 -3 388 -10 384 -6 -4 -10
-140 -10 -376 0 -267 -3 -369 -11 -369 -6 0 -38 12 -70 26 -62 28 -105 29 -54
1 38 -21 24 -22 -15 -2 l-30 16 0 137 0 137 -145 -145 c-80 -80 -145 -138
-145 -129 0 8 70 84 155 169 85 84 155 155 155 157 0 19 -48 -21 -175 -147
-83 -82 -155 -150 -161 -150 -5 0 -30 20 -54 45 -24 25 -49 45 -54 45 -6 0 15
-26 47 -58 31 -32 57 -62 57 -67 0 -5 -31 21 -69 59 -41 41 -70 63 -73 55 -7
-21 -28 0 -28 29 0 20 -3 23 -12 14 -10 -10 -30 5 -94 69 -47 46 -87 79 -93
75 -7 -5 -11 -63 -11 -175 l0 -169 -77 -4 c-48 -2 -78 -8 -81 -16 -2 -7 -8
-12 -13 -12 -5 0 -9 129 -9 310 0 308 0 311 20 300 15 -8 20 -8 20 2 0 7 86
-73 190 -177 133 -133 190 -184 190 -170 0 13 -68 88 -185 205 l-185 185 0 85
c0 86 0 86 26 85 19 -1 82 -58 262 -238z m502 -20 c0 -2 -12 -14 -27 -28 l-28
-24 24 28 c23 25 31 32 31 24z m-470 -382 c0 -5 -34 24 -75 65 l-75 74 0 -162
c0 -101 -4 -162 -10 -162 -6 0 -10 67 -10 182 l0 183 85 -85 c47 -47 85 -89
85 -95z m1200 135 c0 -5 -10 -10 -22 -10 -19 0 -20 2 -8 10 19 13 30 13 30 0z
m-160 -265 c0 -16 -26 -55 -37 -55 -11 0 -11 6 2 30 13 25 35 41 35 25z m-410
-20 c14 -8 21 -14 15 -14 -5 0 -21 6 -35 14 -14 8 -20 14 -15 14 6 0 21 -6 35
-14z m55 -25 c3 -6 -1 -7 -9 -4 -18 7 -21 14 -7 14 6 0 13 -4 16 -10z"/>
<path d="M6815 3000 c82 -92 404 -414 409 -409 3 3 -97 106 -222 229 -124 124
-209 205 -187 180z"/>
<path d="M6753 2975 c0 -33 2 -45 4 -27 2 18 2 45 0 60 -2 15 -4 0 -4 -33z"/>
<path d="M7630 2895 c-81 -81 -99 -108 -79 -121 5 -3 9 2 9 10 0 19 16 21 23
4 4 -10 6 -10 6 0 1 18 19 15 24 -5 4 -17 5 -17 6 0 0 9 5 17 10 17 5 0 12 -8
14 -17 4 -17 5 -17 6 0 0 9 5 17 11 17 5 0 7 -7 4 -15 -5 -11 1 -15 20 -15 23
0 26 4 26 33 1 17 3 65 7 105 3 39 4 72 1 72 -2 0 -41 -38 -88 -85z"/>
<path d="M6790 2943 c0 -27 47 -82 123 -142 26 -21 20 1 -8 32 -16 16 -21 27
-13 28 7 0 0 5 -16 11 -21 8 -25 13 -15 19 11 7 10 9 -3 9 -12 0 -18 8 -18 21
0 15 -5 19 -15 15 -11 -4 -15 0 -13 11 2 9 -3 18 -9 20 -9 3 -13 -5 -13 -24z"/>
<path d="M6760 2893 c1 -15 350 -357 357 -350 7 8 -335 357 -349 357 -5 0 -8
-3 -8 -7z"/>
<path d="M7549 2843 c-13 -16 -12 -17 4 -4 9 7 17 15 17 17 0 8 -8 3 -21 -13z"/>
<path d="M6730 2825 c0 -6 72 -82 160 -170 88 -88 160 -155 160 -150 0 6 -72
82 -160 170 -88 88 -160 155 -160 150z"/>
<path d="M6704 2550 c0 -151 2 -213 3 -137 2 75 2 199 0 275 -1 75 -3 13 -3
-138z"/>
<path d="M7584 2480 c0 -74 1 -105 3 -67 2 37 2 97 0 135 -2 37 -3 6 -3 -68z"/>
<path d="M7126 2503 c-4 -9 -2 -21 4 -27 7 -7 10 -2 10 17 0 31 -5 34 -14 10z"/>
<path d="M9335 3088 c-11 -6 -47 -37 -80 -69 l-60 -58 -142 -3 c-125 -3 -145
-5 -170 -24 -21 -16 -28 -30 -30 -60 -2 -37 -1 -37 7 -10 11 34 38 66 57 66 9
0 7 -6 -7 -20 -11 -11 -20 -26 -20 -32 0 -7 5 -5 11 5 9 15 28 17 160 17 l151
0 65 63 c36 34 79 80 96 102 17 22 -10 1 -59 -47 -49 -49 -96 -88 -104 -88 -8
0 23 38 70 85 47 47 82 85 80 85 -3 0 -14 -6 -25 -12z"/>
<path d="M8799 3067 c-31 -21 -78 -88 -79 -112 0 -11 27 25 29 40 3 16 43 56
76 76 17 11 25 19 19 19 -6 0 -26 -10 -45 -23z"/>
<path d="M6220 3024 c-11 -25 -20 -49 -20 -54 0 -5 -7 -16 -16 -24 -11 -12
-36 -16 -93 -16 -46 0 -82 -5 -89 -12 -7 -7 -12 -38 -12 -69 0 -49 -3 -59 -25
-73 -13 -9 -27 -16 -30 -16 -3 0 -5 61 -5 135 0 83 4 135 10 135 6 0 10 5 10
10 0 6 -37 10 -92 10 -103 -1 -128 -11 -128 -53 0 -14 -6 -28 -12 -30 -7 -3
24 -6 70 -6 48 -1 82 3 82 9 0 6 11 10 25 10 l25 0 0 -139 c0 -102 -3 -141
-12 -144 -8 -3 -6 -6 5 -6 9 -1 17 4 17 9 0 6 14 10 30 10 17 0 30 4 30 9 0 5
11 12 25 15 14 4 25 13 25 21 0 9 -6 12 -15 9 -13 -5 -15 6 -15 70 0 61 3 76
15 76 8 0 15 -7 15 -15 0 -12 16 -15 84 -15 76 0 86 2 100 22 20 28 21 49 2
22 -25 -33 -28 -9 -5 47 11 30 25 64 30 77 17 44 -12 22 -31 -24z"/>
<path d="M8878 3060 c-51 -15 -98 -51 -123 -94 -14 -24 -25 -48 -25 -53 0 -6
23 -13 50 -15 42 -2 51 0 56 15 3 10 20 27 37 38 28 16 51 19 172 19 l139 0
43 42 c24 23 43 46 43 50 0 11 -357 9 -392 -2z"/>
<path d="M4924 2955 c0 -60 1 -84 3 -52 2 32 2 81 0 110 -2 29 -3 3 -3 -58z"/>
<path d="M8341 3055 c0 -5 11 -30 24 -55 13 -25 24 -40 24 -35 0 6 -11 30 -24
55 -13 25 -24 41 -24 35z"/>
<path d="M4411 3045 c0 -5 11 -30 24 -55 13 -25 24 -40 24 -35 0 6 -11 30 -24
55 -13 25 -24 41 -24 35z"/>
<path d="M5988 3000 l4 -51 90 3 90 3 18 48 18 47 -111 0 -112 0 3 -50z"/>
<path d="M4339 3030 c-1 -8 -1 -19 0 -24 1 -5 -4 -13 -11 -17 -11 -7 -11 -9 0
-9 7 0 10 -5 7 -10 -4 -6 -11 -8 -16 -5 -5 4 -9 1 -9 -5 0 -7 6 -10 14 -7 9 4
16 -4 20 -24 6 -29 36 -71 36 -50 0 18 18 12 23 -6 4 -17 5 -17 6 0 0 10 -9
39 -20 65 -12 26 -28 61 -35 77 -7 17 -14 23 -15 15z"/>
<path d="M4961 2993 l1 -48 102 3 c130 4 179 -3 216 -34 16 -14 38 -24 47 -22
10 1 29 -8 42 -21 44 -44 56 17 13 67 -11 12 -24 22 -31 22 -6 0 -11 9 -11 19
0 13 -15 26 -43 40 -38 18 -62 21 -190 21 l-147 0 1 -47z m369 -17 c0 -3 -4
-8 -10 -11 -5 -3 -10 -1 -10 4 0 6 5 11 10 11 6 0 10 -2 10 -4z m30 -36 c0 -5
-4 -10 -10 -10 -5 0 -10 5 -10 10 0 6 5 10 10 10 6 0 10 -4 10 -10z"/>
<path d="M4297 2995 c-24 -50 -20 -58 4 -12 11 22 19 41 17 43 -3 2 -12 -12
-21 -31z"/>
<path d="M5365 3006 c10 -14 19 -26 22 -26 7 0 -17 39 -28 46 -6 3 -3 -5 6
-20z"/>
<path d="M8242 2960 c-34 -75 -46 -127 -31 -136 5 -3 9 4 9 15 0 12 4 21 8 21
12 0 13 -68 2 -75 -17 -10 -32 -45 -20 -45 5 0 10 7 10 15 0 8 4 15 10 15 5 0
7 -7 4 -15 -4 -8 -1 -15 5 -15 6 0 11 7 11 15 0 8 5 15 11 15 5 0 7 -4 4 -10
-3 -5 -1 -10 4 -10 6 0 11 5 11 10 0 6 5 10 11 10 5 0 8 -4 4 -9 -3 -5 -1 -12
5 -16 5 -3 10 1 10 9 0 9 5 16 11 16 5 0 8 -4 4 -9 -3 -5 -1 -12 5 -16 5 -3
10 1 10 9 0 9 5 16 10 16 6 0 9 -5 8 -11 -2 -6 10 -13 25 -16 l28 -4 -16 38
c-45 108 -98 223 -109 238 -11 15 -16 8 -44 -55z m-2 -80 c0 -5 -4 -10 -10
-10 -5 0 -10 5 -10 10 0 6 5 10 10 10 6 0 10 -4 10 -10z m30 0 c0 -5 -4 -10
-10 -10 -5 0 -10 5 -10 10 0 6 5 10 10 10 6 0 10 -4 10 -10z m0 -39 c0 -11 -4
-23 -10 -26 -6 -4 -10 5 -10 19 0 14 5 26 10 26 6 0 10 -9 10 -19z"/>
<path d="M4857 3013 c-11 -10 -8 -211 3 -218 6 -4 10 35 10 109 0 64 -1 116
-3 116 -2 0 -7 -3 -10 -7z"/>
<path d="M5533 2950 c0 -36 2 -50 4 -32 2 17 2 47 0 65 -2 17 -4 3 -4 -33z"/>
<path d="M5570 2950 l0 -50 113 0 c144 0 157 -4 157 -43 0 -46 11 -25 17 32
l5 51 -89 -3 c-48 -2 -99 0 -113 4 -18 5 -20 7 -6 8 12 1 16 6 12 17 -3 9 -6
20 -6 25 0 5 -20 9 -45 9 l-45 0 0 -50z m60 26 c0 -3 -4 -8 -10 -11 -5 -3 -10
-1 -10 4 0 6 5 11 10 11 6 0 10 -2 10 -4z"/>
<path d="M5954 2895 c0 -60 1 -84 3 -52 2 32 2 81 0 110 -2 29 -3 3 -3 -58z"/>
<path d="M4790 2940 c0 -37 4 -50 15 -50 9 0 12 -6 9 -15 -4 -8 -1 -15 5 -15
7 0 11 24 11 65 0 58 -2 65 -20 65 -17 0 -20 -7 -20 -50z"/>
<path d="M6246 2975 c-9 -26 -7 -32 5 -12 6 10 9 21 6 23 -2 3 -7 -2 -11 -11z"/>
<path d="M8216 2965 c-9 -26 -7 -32 5 -12 6 10 9 21 6 23 -2 3 -7 -2 -11 -11z"/>
<path d="M5887 2953 c-11 -11 -8 -223 3 -223 6 0 10 45 10 115 0 63 -1 115 -3
115 -2 0 -7 -3 -10 -7z"/>
<path d="M8391 2945 c0 -5 11 -30 24 -55 13 -25 24 -40 24 -35 0 6 -11 30 -24
55 -13 25 -24 41 -24 35z"/>
<path d="M4471 2915 c0 -5 11 -30 24 -55 13 -25 24 -40 24 -35 0 6 -11 30 -24
55 -13 25 -24 41 -24 35z"/>
<path d="M4237 2865 c-24 -50 -20 -58 4 -12 11 22 19 41 17 43 -3 2 -12 -12
-21 -31z"/>
<path d="M8157 2835 c-24 -50 -20 -58 4 -12 11 22 19 41 17 43 -3 2 -12 -12
-21 -31z"/>
<path d="M8890 2842 c0 -7 12 -24 26 -37 l27 -25 -29 -2 c-16 -1 34 -4 111 -8
77 -4 149 -10 160 -14 11 -4 4 2 -15 13 -28 16 -31 20 -14 21 69 1 197 -84
224 -150 7 -17 15 -28 18 -26 11 12 -53 99 -99 136 -69 55 -128 70 -270 70
-102 0 -119 2 -128 18 -6 10 -11 12 -11 4z"/>
<path d="M5285 2829 c-4 -6 -5 -12 -2 -15 2 -3 7 2 10 11 7 17 1 20 -8 4z"/>
<path d="M5794 2565 c0 -154 2 -216 3 -137 2 79 2 205 0 280 -1 75 -3 11 -3
-143z"/>
<path d="M8451 2815 c0 -5 11 -30 24 -55 13 -25 24 -40 24 -35 0 6 -11 30 -24
55 -13 25 -24 41 -24 35z"/>
<path d="M8790 2798 c0 -23 46 -67 92 -88 42 -19 37 -26 -17 -22 -15 2 -17 0
-6 -7 8 -5 58 -7 111 -4 74 4 109 2 144 -10 52 -18 59 -15 19 7 l-28 15 28 1
c44 0 89 -23 130 -69 20 -22 37 -38 37 -34 0 21 -44 76 -81 103 -23 16 -38 30
-34 30 17 0 76 -43 100 -73 14 -18 25 -27 25 -20 0 21 -61 83 -104 105 -34 18
-65 23 -187 27 -121 5 -150 9 -166 24 -11 9 -23 17 -28 17 -13 0 18 -32 50
-52 36 -22 26 -24 -15 -3 -15 8 -38 27 -49 41 -13 17 -21 21 -21 12z"/>
<path d="M4531 2785 c0 -5 11 -30 24 -55 13 -25 24 -40 24 -35 0 6 -11 30 -24
55 -13 25 -24 41 -24 35z"/>
<path d="M5255 2760 c-33 -22 -29 -26 10 -8 14 6 25 15 25 20 0 11 -1 11 -35
-12z"/>
<path d="M8721 2764 c0 -11 3 -14 6 -6 3 7 2 16 -1 19 -3 4 -6 -2 -5 -13z"/>
<path d="M4177 2735 c-24 -50 -20 -58 4 -12 11 22 19 41 17 43 -3 2 -12 -12
-21 -31z"/>
<path d="M4917 2743 c-11 -10 -8 -71 3 -78 6 -4 10 12 10 39 0 47 -2 51 -13
39z"/>
<path d="M8785 2740 c3 -5 11 -10 16 -10 6 0 7 5 4 10 -3 6 -11 10 -16 10 -6
0 -7 -4 -4 -10z"/>
<path d="M8097 2705 c-24 -50 -20 -58 4 -12 11 22 19 41 17 43 -3 2 -12 -12
-21 -31z"/>
<path d="M9290 2703 c13 -18 25 -33 27 -33 8 0 -17 38 -33 51 -11 9 -9 2 6
-18z"/>
<path d="M8501 2705 c0 -5 13 -35 29 -65 16 -30 29 -50 29 -45 0 6 -13 35 -29
65 -16 30 -29 51 -29 45z"/>
<path d="M4581 2675 c0 -5 11 -30 24 -55 13 -25 24 -40 24 -35 0 6 -11 30 -24
55 -13 25 -24 41 -24 35z"/>
<path d="M9210 2635 c7 -9 15 -13 17 -11 7 7 -7 26 -19 26 -6 0 -6 -6 2 -15z"/>
<path d="M9401 2574 c0 -11 3 -14 6 -6 3 7 2 16 -1 19 -3 4 -6 -2 -5 -13z"/>
<path d="M8561 2575 c0 -5 8 -26 19 -45 11 -19 19 -30 19 -25 0 6 -8 26 -19
45 -11 19 -19 31 -19 25z"/>
<path d="M9355 2566 c-74 -43 -51 -87 29 -56 28 10 35 30 12 30 -8 0 -16 8
-18 19 -2 15 -6 17 -23 7z"/>
<path d="M9271 2534 c0 -11 3 -14 6 -6 3 7 2 16 -1 19 -3 4 -6 -2 -5 -13z"/>
<path d="M8137 2513 c-22 -42 -29 -73 -19 -73 6 0 12 6 15 13 3 6 12 29 21 50
19 43 4 51 -17 10z"/>
<path d="M7985 2519 c-4 -6 -5 -12 -2 -15 2 -3 7 2 10 11 7 17 1 20 -8 4z"/>
<path d="M7952 2445 c-17 -37 -14 -45 4 -12 9 16 14 31 11 33 -2 2 -9 -7 -15
-21z"/>
<path d="M9361 2454 c0 -11 3 -14 6 -6 3 7 2 16 -1 19 -3 4 -6 -2 -5 -13z"/>
<path d="M8703 2340 c0 -36 2 -50 4 -32 2 17 2 47 0 65 -2 17 -4 3 -4 -33z"/>
<path d="M8580 2375 c0 -5 5 -17 10 -25 5 -8 10 -10 10 -5 0 6 -5 17 -10 25
-5 8 -10 11 -10 5z"/>
<path d="M7886 2305 c-9 -26 -7 -32 5 -12 6 10 9 21 6 23 -2 3 -7 -2 -11 -11z"/>
</g>
</svg>
